<!--?xml version="1.0" standalone="no"?-->
              <svg id="sw-js-blob-svg" viewBox="0 0 100 100" xmlns="http://www.w3.org/2000/svg" version="1.1">
                    <defs> 
                        <linearGradient id="sw-gradient" x1="0" x2="1" y1="1" y2="0">
                            <stop id="stop1" stop-color="rgba(193, 40, 40, 1)" offset="0%"></stop>
                            <stop id="stop2" stop-color="rgba(13, 17, 23, 1)" offset="100%"></stop>
                        </linearGradient>
                    </defs>
                <path fill="url(#sw-gradient)" d="M18.2,-32.8C24.3,-28,30.3,-24.5,34,-19.2C37.8,-14,39.2,-7,39.7,0.3C40.2,7.6,39.8,15.1,37,22.1C34.3,29.1,29.2,35.4,22.6,38.2C16.1,40.9,8,40,0.5,39.1C-7,38.1,-13.9,37.2,-20,34.1C-26.1,31.1,-31.2,26.1,-35.8,20C-40.4,14,-44.3,7,-42.6,1C-41,-5.1,-33.7,-10.2,-29.3,-16.5C-24.9,-22.8,-23.4,-30.3,-19,-36.1C-14.6,-41.8,-7.3,-45.6,-0.6,-44.6C6.1,-43.5,12.1,-37.5,18.2,-32.8Z" width="100%" height="100%" transform="translate(50 50)" stroke-width="0" style="transition: all 0.3s ease 0s;" stroke="url(#sw-gradient)"></path>
              </svg>